<?xml version="1.0" encoding="UTF-8" standalone="no"?>
<svg
   xmlns:dc="http://purl.org/dc/elements/1.1/"
   xmlns:cc="http://creativecommons.org/ns#"
   xmlns:rdf="http://www.w3.org/1999/02/22-rdf-syntax-ns#"
   xmlns:svg="http://www.w3.org/2000/svg"
   xmlns="http://www.w3.org/2000/svg"
   viewBox="0 0 377.95279 226.77161"
   height="226.77161"
   width="377.95279"
   xml:space="preserve"
   id="svg2"
   version="1.1"><metadata
     id="metadata8"><rdf:RDF><cc:Work
         rdf:about=""><dc:format>image/svg+xml</dc:format><dc:type
           rdf:resource="http://purl.org/dc/dcmitype/StillImage" /></cc:Work></rdf:RDF></metadata><defs
     id="defs6"><clipPath
       id="clipPath18"
       clipPathUnits="userSpaceOnUse"><path
         style="clip-rule:evenodd"
         id="path16"
         d="M -0.1077,-0.1607 H 283.3569 V 169.918 H -0.1077 Z" /></clipPath></defs><g
     transform="matrix(1.3333333,0,0,-1.3333333,0,226.7716)"
     id="g10"><g
       id="g12"><g
         clip-path="url(#clipPath18)"
         id="g14"><g
           id="g20"><path
             id="path22"
             style="fill:#383079;fill-opacity:1;fill-rule:nonzero;stroke:none"
             d="m 132.6033,106.5436 c 0,-1.8431 1.0094,-2.8525 2.8964,-2.8525 h 3.5108 c 1.887,0 2.8525,1.0094 2.8525,2.8525 v 8.8208 h 9.2157 v -8.8208 c 0,-1.8431 1.0094,-2.8525 2.8525,-2.8525 h 3.5549 c 1.8431,0 2.8525,1.0094 2.8525,2.8525 v 25.8482 c 0,1.8871 -1.0094,2.8525 -2.8525,2.8525 h -3.5549 c -1.8431,0 -2.8525,-0.9654 -2.8525,-2.8525 v -9.172 h -9.2157 v 9.172 c 0,1.8871 -0.9655,2.8525 -2.8525,2.8525 h -3.5108 c -1.887,0 -2.8964,-0.9654 -2.8964,-2.8525 z" /><path
             id="path24"
             style="fill:#383079;fill-opacity:1;fill-rule:nonzero;stroke:none"
             d="m 167.0088,128.5739 h 3.1159 c 1.8433,0 2.8525,1.0091 2.8525,2.8964 v 0.9215 c 0,1.8871 -1.0092,2.8525 -2.8525,2.8525 h -3.1159 c -1.887,0 -2.8525,-0.9654 -2.8525,-2.8525 v -0.9215 c 0,-1.8873 0.9655,-2.8964 2.8525,-2.8964 z m -3.0279,-22.0303 c 0,-1.8431 1.0094,-2.8525 2.8525,-2.8525 h 3.4231 c 1.887,0 2.8964,1.0094 2.8964,2.8525 v 17.071 c 0,1.8874 -1.0094,2.8528 -2.8964,2.8528 h -3.4231 c -1.8431,0 -2.8525,-0.9654 -2.8525,-2.8528 z" /><path
             id="path26"
             style="fill:#383079;fill-opacity:1;fill-rule:nonzero;stroke:none"
             d="m 175.5666,115.145 c 0,-7.1093 4.2129,-11.9806 10.1812,-11.9806 2.6771,0 5.1347,0.9655 6.3635,3.2913 h 0.0437 c 0.1318,-1.7992 1.0973,-2.7646 2.8964,-2.7646 h 2.8086 c 1.887,0 2.8525,1.0094 2.8525,2.8525 v 25.8482 c 0,1.8871 -0.9655,2.8525 -2.8525,2.8525 h -3.4229 c -1.887,0 -2.8964,-0.9654 -2.8964,-2.8525 v -6.1001 c 0,-0.7022 0.0439,-1.2288 0.0439,-1.2288 h -0.0878 c 0,0 -1.0095,1.9309 -5.2223,1.9309 -6.7144,0 -10.7079,-4.9589 -10.7079,-11.8488 z m 9.1718,-0.0879 c 0,2.8089 1.624,4.3008 3.5986,4.3008 2.1943,0 3.467,-1.8871 3.467,-4.3884 0,-2.8964 -1.6676,-4.3007 -3.5107,-4.3007 -2.1067,0 -3.5549,1.7552 -3.5549,4.3883 z" /><path
             id="path28"
             style="fill:#383079;fill-opacity:1;fill-rule:nonzero;stroke:none"
             d="m 204.1356,106.5436 c 0,-1.8431 1.0094,-2.8525 2.8525,-2.8525 h 3.4231 c 1.887,0 2.8965,1.0094 2.8965,2.8525 v 5.7489 c 0,3.3352 1.5797,5.6611 4.8271,5.6611 1.8433,0 2.8088,1.0094 2.8088,2.8964 v 2.9843 c 0,1.8871 -0.5706,2.8962 -2.37,2.8962 -2.6328,0 -5.0029,-3.2474 -5.6611,-5.2662 h -0.0876 c 0,0 0.0876,0.6145 0.0876,1.2727 v 0.8776 c 0,1.8874 -1.0094,2.8528 -2.8964,2.8528 h -3.028 c -1.8431,0 -2.8525,-0.9654 -2.8525,-2.8528 z" /><path
             id="path30"
             style="fill:#383079;fill-opacity:1;fill-rule:nonzero;stroke:none"
             d="m 221.514,114.9695 c 0,-7.1971 5.8807,-11.8051 13.2094,-11.8051 7.3287,0 13.2092,4.608 13.2092,11.8051 0,7.2848 -5.8805,12.0243 -13.2531,12.0243 -7.2848,0 -13.1655,-4.7395 -13.1655,-12.0243 z m 9.2596,0 c 0,2.8525 1.8434,4.4762 3.9498,4.4762 2.1064,0 3.9935,-1.6237 3.9935,-4.4762 0,-2.8088 -1.8871,-4.2567 -3.9935,-4.2567 -2.1064,0 -3.9498,1.4479 -3.9498,4.2567" /><path
             id="path32"
             style="fill:#3fbdda;fill-opacity:1;fill-rule:nonzero;stroke:none"
             d="m 139.4053,69.5191 c 0,-1.8431 1.0094,-2.8525 2.8525,-2.8525 h 3.5547 c 1.8433,0 2.8528,1.0094 2.8528,2.8525 v 20.8015 h 6.1438 c 1.8431,0 2.8525,1.0094 2.8525,2.8525 v 2.1943 c 0,1.887 -1.0094,2.8525 -2.8525,2.8525 h -21.5476 c -1.8431,0 -2.8525,-0.9655 -2.8525,-2.8525 v -2.1943 c 0,-1.8431 1.0094,-2.8525 2.8525,-2.8525 h 6.1438 z" /><path
             id="path34"
             style="fill:#3fbdda;fill-opacity:1;fill-rule:nonzero;stroke:none"
             d="m 154.6333,78.0766 c 0,-5.7489 4.1253,-11.9367 12.7267,-11.9367 3.4229,0 6.0999,0.9216 7.8993,1.8431 1.5798,0.8779 1.8431,2.2822 1.0092,3.9498 l -0.7022,1.3604 c -0.8776,1.6676 -2.1503,1.887 -3.8619,1.1409 -1.1849,-0.5264 -2.4573,-0.7458 -3.5546,-0.7458 -1.7113,0 -3.5107,0.6582 -4.2568,2.6331 h 10.6203 c 1.7991,0 3.0279,1.6237 3.0279,2.984 0,5.8369 -3.8619,10.664 -10.8397,10.664 -7.7675,0 -12.0682,-5.4417 -12.0682,-11.8928 z m 9.3476,2.8525 c 0.0875,1.3604 0.6582,2.8525 2.6331,2.8525 1.4921,0 2.2379,-1.4482 2.1064,-2.8525 z" /><path
             id="path36"
             style="fill:#3fbdda;fill-opacity:1;fill-rule:nonzero;stroke:none"
             d="m 178.9016,78.0766 c 0,-6.0123 4.3446,-11.9367 12.9461,-11.9367 3.5986,0 6.3632,1.141 8.0748,2.1943 1.4042,0.9216 1.5797,2.3698 0.79,3.9495 l -0.6582,1.3167 c -0.8779,1.7116 -2.1504,1.931 -3.9059,1.0095 -1.1409,-0.5707 -2.4137,-0.9216 -3.3792,-0.9216 -3.4231,0 -4.608,2.7207 -4.608,4.5201 0,1.7992 1.0973,4.2129 4.3008,4.2129 0.8339,0 1.7115,-0.0879 2.5455,-0.4388 1.7115,-0.79 2.8525,-0.7022 3.8619,0.8776 l 0.8776,1.3603 c 0.9215,1.4922 0.8337,2.9844 -0.6582,3.9059 -1.5361,0.9655 -3.9498,1.8431 -7.2411,1.8431 -8.6893,0 -12.9461,-6.056 -12.9461,-11.8928" /><path
             id="path38"
             style="fill:#383079;fill-opacity:1;fill-rule:nonzero;stroke:none"
             d="m 137.255,32.1437 c 0.439,-1.6676 1.4482,-2.5015 3.2037,-2.5015 h 5.2222 c 1.7116,0 2.7647,0.8339 3.1598,2.5015 l 2.6771,11.3661 c 0.3948,1.5798 0.4388,3.3353 0.4388,3.3353 h 0.0439 c 0,0 0.1315,-1.7555 0.4827,-3.3353 l 2.6329,-11.3661 c 0.3951,-1.6676 1.4482,-2.5015 3.1597,-2.5015 h 5.1347 c 1.7116,0 2.7646,0.79 3.2035,2.4576 l 6.451,25.9359 c 0.4388,1.9749 -0.4827,3.1598 -2.5013,3.1598 h -3.6864 c -1.7992,0 -2.8525,-0.834 -3.2034,-2.5016 L 160.6017,43.071 c -0.307,-1.6237 -0.307,-3.2916 -0.307,-3.2916 h -0.0879 c 0,0 -0.0876,1.624 -0.4388,3.2916 l -3.4668,15.6229 c -0.3512,1.6676 -1.4045,2.5016 -3.1158,2.5016 h -2.1943 c -1.7555,0 -2.7649,-0.834 -3.2037,-2.5016 L 144.1888,43.071 C 143.7939,41.4473 143.75,39.7794 143.75,39.7794 h -0.0876 c 0,0 -0.0439,1.6679 -0.3073,3.2916 l -2.721,15.579 c -0.3948,1.7115 -1.4042,2.5455 -3.1597,2.5455 h -3.818 c -2.0186,0 -2.9841,-1.1849 -2.5013,-3.1598 z" /><path
             id="path40"
             style="fill:#383079;fill-opacity:1;fill-rule:nonzero;stroke:none"
             d="m 172.758,36.1372 c 0,-3.7741 2.7647,-7.0217 7.3287,-7.0217 3.3792,0 5.1787,1.6676 6.4072,3.5546 h 0.0879 c 0.1315,-1.9746 1.0533,-3.0279 2.8525,-3.0279 h 2.5891 c 1.8871,0 2.8525,1.0094 2.8525,2.8525 v 10.9712 c 0,5.8368 -4.1689,9.479 -10.7078,9.479 -3.2035,0 -5.8805,-0.8336 -7.8115,-1.7115 -1.6237,-0.7458 -1.9309,-2.194 -1.1849,-3.818 l 0.6143,-1.3164 c 0.834,-1.7116 2.1064,-2.0625 3.8619,-1.3164 1.1849,0.4824 2.5453,0.8337 3.6426,0.8337 1.1848,0 2.4576,-0.3073 2.4576,-1.4043 v -0.7461 h -0.4391 c -6.0559,0 -12.551,-1.9749 -12.551,-7.3287 z m 8.2942,0.7897 c 0,1.2288 1.7995,1.931 4.3007,1.931 h 0.4828 v -0.4388 c 0,-1.7116 -1.3164,-2.984 -2.984,-2.984 -1.3167,0 -1.7995,0.8336 -1.7995,1.4918 z" /><path
             id="path42"
             style="fill:#383079;fill-opacity:1;fill-rule:nonzero;stroke:none"
             d="m 199.6157,37.7169 c 0,-7.2408 7.2848,-8.2941 10.1373,-8.2941 2.4137,0 3.7304,0.7021 3.7304,2.8525 v 2.4576 c 0,1.9746 -0.7461,2.3258 -2.8088,2.6331 -1.2286,0.1755 -1.8871,0.8776 -1.8871,2.0625 v 5.4417 h 1.6676 c 1.7995,0 2.8089,1.0094 2.8089,2.8525 v 1.3603 c 0,1.8873 -1.0094,2.8528 -2.8964,2.8528 h -1.5801 v 3.7301 c 0,1.887 -1.0091,2.8525 -2.8964,2.8525 h -3.1159 c -1.887,0 -2.8525,-0.9655 -2.8525,-2.8525 v -3.7301 h -0.5703 c -1.7994,0 -2.8086,-0.9655 -2.8086,-2.8528 v -1.3603 c 0,-1.8431 1.0092,-2.8525 2.8086,-2.8525 h 0.2633 z" /><path
             id="path44"
             style="fill:#383079;fill-opacity:1;fill-rule:nonzero;stroke:none"
             d="m 214.7998,41.0522 c 0,-5.749 4.1253,-11.9367 12.7267,-11.9367 3.4229,0 6.0999,0.9215 7.8993,1.8431 1.5798,0.8779 1.8431,2.2822 1.0092,3.9498 l -0.7022,1.3603 c -0.8776,1.6676 -2.1503,1.887 -3.8619,1.141 -1.1849,-0.5264 -2.4574,-0.7458 -3.5546,-0.7458 -1.7113,0 -3.5108,0.6582 -4.2568,2.6331 h 10.6202 c 1.7992,0 3.028,1.6237 3.028,2.984 0,5.8368 -3.8619,10.6639 -10.8397,10.6639 -7.7675,0 -12.0682,-5.4416 -12.0682,-11.8927 z m 9.3475,2.8525 c 0.0876,1.3603 0.6582,2.8525 2.6331,2.8525 1.4922,0 2.238,-1.4482 2.1065,-2.8525 z" /><path
             id="path46"
             style="fill:#383079;fill-opacity:1;fill-rule:nonzero;stroke:none"
             d="m 240.0775,32.4947 c 0,-1.8431 1.0094,-2.8525 2.8525,-2.8525 h 3.4231 c 1.887,0 2.8964,1.0094 2.8964,2.8525 v 5.7489 c 0,3.3353 1.5798,5.6611 4.8272,5.6611 1.8433,0 2.8088,1.0094 2.8088,2.8964 v 2.9843 c 0,1.8871 -0.5706,2.8962 -2.37,2.8962 -2.6329,0 -5.0029,-3.2474 -5.6611,-5.2662 h -0.0876 c 0,0 0.0876,0.6146 0.0876,1.2728 v 0.8776 c 0,1.8873 -1.0094,2.8528 -2.8964,2.8528 h -3.028 c -1.8431,0 -2.8525,-0.9655 -2.8525,-2.8528 z" /><path
             id="path48"
             style="fill:#383079;fill-opacity:1;fill-rule:evenodd;stroke:none"
             d="m 55.6795,67.2409 v -24.34 c 0,-4.6595 -3.8123,-8.4721 -8.4722,-8.4721 H 34.8372 c -4.6596,0 -8.4719,3.8126 -8.4719,8.4721 V 85.6936 C 31.7353,75.1326 42.87,67.966 55.3255,67.2596 Z" /><path
             id="path50"
             style="fill:#383079;fill-opacity:1;fill-rule:evenodd;stroke:none"
             d="m 80.2763,103.4867 v 24.3399 c 0,4.6596 3.8123,8.4722 8.4722,8.4722 h 12.3701 c 4.6596,0 8.4719,-3.8126 8.4719,-8.4722 V 85.034 c -5.3699,10.561 -16.5047,17.7276 -28.9601,18.434 z" /><path
             id="path52"
             style="fill:#383079;fill-opacity:1;fill-rule:evenodd;stroke:none"
             d="m 86.307,70.5708 c 12.8602,0 23.2852,-9.8314 23.2852,-21.9597 -8e-4,7.5092 0,15.0244 0,22.5309 -0.1562,15.4425 -12.9863,28.0264 -29.1537,28.9431 -9.8108,0.5638 -20.8551,0.0717 -30.7897,0.0717 -12.8605,0 -23.2852,9.8314 -23.2852,21.9597 9e-4,-7.5101 0,-15.0208 0,-22.5309 C 26.5198,84.1431 39.35,71.5592 55.5174,70.6425 65.2697,70.0815 76.405,70.5708 86.307,70.5708" /><path
             id="path54"
             style="fill:#3fbdda;fill-opacity:1;fill-rule:evenodd;stroke:none"
             d="m 72.6208,103.5592 c -5.6347,0 -10.5664,3.0082 -13.2783,7.5051 -5.256,8.7205 2.0264,21.1765 -9.6106,27.8764 -8.6947,5.0049 -21.7582,-1.0777 -21.7582,-13.4421 0,-12.8189 10.6186,-22.4244 23.2852,-21.96 7.1155,0.261 14.239,0.0201 21.3619,0.0206" /><path
             id="path56"
             style="fill:#3fbdda;fill-opacity:1;fill-rule:evenodd;stroke:none"
             d="m 63.3351,67.1683 c 5.6347,0 10.5664,-3.0078 13.2783,-7.5047 5.256,-8.7205 -2.0265,-21.1768 9.6106,-27.8767 9.7364,-5.6044 21.8919,2.3247 21.7573,13.6224 0,12.2494 -10.2478,22.2577 -23.2844,21.7797 C 77.5814,66.928 70.458,67.1692 63.3351,67.1683" /></g></g></g></g></svg>